<svg width="375" height="545" viewBox="0 0 375 545" fill="none" xmlns="http://www.w3.org/2000/svg">
<path d="M-427.202 468.774C-434.475 471.114 -426.62 444.445 -427.202 421.933L-426.62 167.652C-427.687 106.363 -422.43 -0.00013192 -426.62 -0.00013192L690.585 -0.00012207V545C678.656 517.361 656.836 483.953 627.742 459.464C541.333 386.729 373.872 393.497 289.38 465.864C159.622 577.003 -22.5058 530.958 -136.845 478.298C-251.184 425.638 -310.552 431.243 -427.202 468.774Z" fill="url(#paint0_linear)"/>
<mask id="mask0" mask-type="alpha" maskUnits="userSpaceOnUse" x="-457" y="55" width="1186" height="480">
<path d="M-444.641 478.298C-444.105 499.033 -471.937 486.332 -444.524 473.963L-436.204 166.775C-437.271 105.485 -424 78.0431 -428.189 78.0431C-432.379 78.0431 335.646 33.7903 728.407 69.3149L689.421 519.979C680.693 511.833 684.475 500.195 627.742 459.464C500.179 367.88 373.872 393.497 289.381 465.864C159.622 577.003 -22.5057 530.958 -136.845 478.298C-251.184 425.638 -319.554 433.279 -436.204 470.81C-439.418 471.845 -442.174 472.902 -444.524 473.963L-444.641 478.298Z" fill="url(#paint1_linear)"/>
</mask>
<g mask="url(#mask0)">
<circle cx="283.1" cy="323.5" r="86.5" fill="#8AE698" fill-opacity="0.69"/>
</g>
<path d="M-419.535 428.825C-465.761 451.157 -430.504 433.361 -431.03 412.111L-419.535 77.232C-420.499 19.3788 -395.4 89.3143 -395.4 24.8144C-395.4 21.0295 -120.9 10.8144 -81.9001 10.8144C-81.9001 10.8144 59 -21.5 219.5 -21.5C380 -21.5 385.5 85 390 142.5C394.5 200 359.1 305.5 296.6 333.5C222.49 366.7 198.6 468 146.1 499.5C93.5999 531 -57.4001 537 -111.4 499.5C-165.4 462 -300.899 371.51 -419.535 428.825Z" fill="white"/>
<defs>
<linearGradient id="paint0_linear" x1="-124.625" y1="590.096" x2="714.503" y2="281.99" gradientUnits="userSpaceOnUse">
<stop stop-color="#8AE698"/>
<stop offset="1" stop-color="#08B688"/>
</linearGradient>
<linearGradient id="paint1_linear" x1="-124.625" y1="590.095" x2="714.503" y2="281.99" gradientUnits="userSpaceOnUse">
<stop stop-color="#8AE698"/>
<stop offset="1" stop-color="#08B688"/>
</linearGradient>
</defs>
</svg>
