<svg width="375" height="545" fill="none" xmlns="http://www.w3.org/2000/svg"><path d="M-427.202 468.774c-7.273 2.34.582-24.329 0-46.841l.582-254.281C-427.687 106.363-422.43 0-426.62 0H690.585v545c-11.929-27.639-33.749-61.047-62.843-85.536-86.409-72.735-253.87-65.967-338.362 6.4-129.758 111.139-311.886 65.094-426.225 12.434s-173.707-47.055-290.357-9.524z" fill="url(#paint0_linear)"/><mask id="a" maskUnits="userSpaceOnUse" x="-457" y="55" width="1186" height="480"><path d="M-444.641 478.298c.536 20.735-27.296 8.034.117-4.335l8.32-307.188c-1.067-61.29 12.204-88.732 8.015-88.732-4.19 0 763.835-44.253 1156.596-8.728l-38.986 450.664c-8.728-8.146-4.946-19.784-61.679-60.515-127.563-91.584-253.87-65.967-338.361 6.4-129.759 111.139-311.887 65.094-426.226 12.434s-182.709-45.019-299.359-7.488c-3.214 1.035-5.97 2.092-8.32 3.153l-.117 4.335z" fill="url(#paint1_linear)"/></mask><g mask="url(#a)"><circle cx="283.1" cy="323.5" r="86.5" fill="#8AE698" fill-opacity=".69"/></g><path d="M-419.535 428.825c-46.226 22.332-10.969 4.536-11.495-16.714l11.495-334.879c-.964-57.853 24.135 12.082 24.135-52.418 0-3.785 274.5-14 313.5-14 0 0 140.9-32.314 301.4-32.314 160.5 0 166 106.5 170.5 164s-30.9 163-93.4 191c-74.11 33.2-98 134.5-150.5 166s-203.5 37.5-257.5 0-189.499-127.99-308.135-70.675z" fill="#fff"/><defs><linearGradient id="paint0_linear" x1="-124.625" y1="590.096" x2="714.503" y2="281.99" gradientUnits="userSpaceOnUse"><stop stop-color="#8AE698"/><stop offset="1" stop-color="#08B688"/></linearGradient><linearGradient id="paint1_linear" x1="-124.625" y1="590.095" x2="714.503" y2="281.99" gradientUnits="userSpaceOnUse"><stop stop-color="#8AE698"/><stop offset="1" stop-color="#08B688"/></linearGradient></defs></svg>