<svg width="1920" height="800" fill="none" xmlns="http://www.w3.org/2000/svg"><path d="M-1.303 669c-12.5 4.022 1-41.812 0-80.5l1-437C-2.136 46.17 6.897 0-.303 0H1919.7v800c-20.5-47.5-58-104.913-108-147-148.5-125-436.3-113.368-581.5 11-223 191-536.003 111.868-732.503 21.368S199.169 604.5-1.303 669z" fill="url(#paint0_linear)"/><mask id="a" maskUnits="userSpaceOnUse" x="-52" y="-42" width="2037" height="824"><path d="M-31.274 685.368c.921 35.634-46.91 13.807.202-7.451l14.298-527.925C-18.608 44.662 4.2-2.5-3-2.5c-7.2 0 1312.71-76.052 1987.7-15l-67 774.5c-15-14-8.5-34-106-104-219.23-157.394-436.3-113.368-581.5 11-223 191-536.003 111.868-732.503 21.368S183.697 608-16.774 672.5c-5.524 1.777-10.26 3.595-14.298 5.417l-.202 7.451z" fill="url(#paint1_linear)"/></mask><g mask="url(#a)" fill="#8AE698"><circle cx="1868.7" cy="254" r="138" fill-opacity=".49"/><circle cx="1273.2" cy="391.5" r="188.5" fill-opacity=".69"/></g><path d="M-12.187 678c-79.443 38.38-18.851 7.796-19.755-28.724l19.754-575.515C-13.82-24.23 57.428-113.39 53.26-115.944c-.248-.037-.327-.056-.233-.056s.172.019.233.056c16.8 2.531 809.507 89.773 866.448 109.491H1057.2C1252.5 13 1237.5 217 1237.5 319.5 1237.5 422 1123 579.504 984 630c-139 50.496-361.803 38.5-501.303 0s-291-50.5-494.884 48z" fill="#fff"/><defs><linearGradient id="paint0_linear" x1="518.697" y1="877.501" x2="1960.8" y2="347.998" gradientUnits="userSpaceOnUse"><stop stop-color="#8AE698"/><stop offset="1" stop-color="#08B688"/></linearGradient><linearGradient id="paint1_linear" x1="518.697" y1="877.5" x2="1960.8" y2="347.997" gradientUnits="userSpaceOnUse"><stop stop-color="#8AE698"/><stop offset="1" stop-color="#08B688"/></linearGradient></defs></svg>