<svg width="1920" height="800" viewBox="0 0 1920 800" fill="none" xmlns="http://www.w3.org/2000/svg">
<path d="M-1.30296 669C-13.803 673.022 -0.302988 627.188 -1.30297 588.5L-0.302973 151.5C-2.13631 46.1692 6.89692 0 -0.302973 0L1919.7 1.69277e-05V800C1899.2 752.5 1861.7 695.087 1811.7 653C1663.2 528 1375.4 539.632 1230.2 664C1007.2 855 694.197 775.868 497.697 685.368C301.197 594.868 199.169 604.5 -1.30296 669Z" fill="url(#paint0_linear)"/>
<mask id="mask0" mask-type="alpha" maskUnits="userSpaceOnUse" x="-52" y="-42" width="2037" height="824">
<path d="M-31.274 685.368C-30.353 721.002 -78.1839 699.175 -31.0722 677.917L-16.7742 149.992C-18.6075 44.6616 4.1999 -2.49994 -3 -2.49994C-10.1999 -2.49994 1309.71 -78.5517 1984.7 -17.5001L1917.7 757C1902.7 743 1909.2 723 1811.7 653C1592.47 495.606 1375.4 539.632 1230.2 664C1007.2 855 694.197 775.868 497.697 685.368C301.197 594.868 183.697 608 -16.7742 672.5C-22.2981 674.277 -27.034 676.095 -31.0722 677.917L-31.274 685.368Z" fill="url(#paint1_linear)"/>
</mask>
<g mask="url(#mask0)">
<circle cx="1868.7" cy="254" r="138" fill="#8AE698" fill-opacity="0.49"/>
<circle cx="1273.2" cy="391.5" r="188.5" fill="#8AE698" fill-opacity="0.69"/>
</g>
<path d="M-12.1874 678C-91.6301 716.38 -31.0382 685.796 -31.9416 649.276L-12.1876 73.7608C-13.82 -24.229 57.4284 -113.39 53.2588 -115.944C53.011 -115.981 52.932 -116 53.0265 -116C53.1204 -116 53.1977 -115.981 53.2588 -115.944C70.0585 -113.413 862.766 -26.1705 919.707 -6.45251H1057.2C1252.5 13 1237.5 217 1237.5 319.5C1237.5 422 1123 579.504 984 630C845 680.496 622.197 668.5 482.697 630C343.197 591.5 191.697 579.5 -12.1874 678Z" fill="white"/>
<defs>
<linearGradient id="paint0_linear" x1="518.697" y1="877.501" x2="1960.8" y2="347.998" gradientUnits="userSpaceOnUse">
<stop stop-color="#8AE698"/>
<stop offset="1" stop-color="#08B688"/>
</linearGradient>
<linearGradient id="paint1_linear" x1="518.697" y1="877.5" x2="1960.8" y2="347.997" gradientUnits="userSpaceOnUse">
<stop stop-color="#8AE698"/>
<stop offset="1" stop-color="#08B688"/>
</linearGradient>
</defs>
</svg>
