<svg width="2836" height="2422" viewBox="0 0 2836 2422" fill="none" xmlns="http://www.w3.org/2000/svg">
<path d="M1220.33 1965.87C1545.62 1995.63 1254.16 1738.96 1299.63 1622.49C1493.72 1125.3 2543.61 1951.87 2645.62 1373.64C2714.2 984.931 1828.93 1043.94 1799.44 861.885C1756.47 596.557 1527.98 258.427 1179.91 326.562C795.375 401.833 574.116 451.396 459.605 555.684C345.095 659.971 151.881 911.082 348.909 1176.79C545.937 1442.5 650.872 1067.33 828.892 1131.41C1006.91 1195.5 802.07 1406.26 816.43 1569.73C830.79 1733.21 982.313 1944.1 1220.33 1965.87Z" fill="url(#paint0_linear)"/>
<defs>
<linearGradient id="paint0_linear" x1="824.98" y1="1040.26" x2="2029.05" y2="310.303" gradientUnits="userSpaceOnUse">
<stop stop-color="#8AE698"/>
<stop offset="1" stop-color="#08B688"/>
</linearGradient>
</defs>
</svg>
