<svg width="2836" height="2422" fill="none" xmlns="http://www.w3.org/2000/svg"><path d="M1220.33 1965.87c325.29 29.76 33.83-226.91 79.3-343.38 194.09-497.19 1243.98 329.38 1345.99-248.85 68.58-388.709-816.69-329.7-846.18-511.755-42.97-265.328-271.46-603.458-619.53-535.323-384.535 75.271-605.794 124.834-720.305 229.122-114.51 104.287-307.724 355.398-110.696 621.106 197.028 265.71 301.963-109.46 479.983-45.38 178.018 64.09-26.822 274.85-12.462 438.32 14.36 163.48 165.883 374.37 403.9 396.14z" fill="url(#paint0_linear)"/><defs><linearGradient id="paint0_linear" x1="824.98" y1="1040.26" x2="2029.05" y2="310.303" gradientUnits="userSpaceOnUse"><stop stop-color="#8AE698"/><stop offset="1" stop-color="#08B688"/></linearGradient></defs></svg>