<svg width="16" height="9" fill="none" xmlns="http://www.w3.org/2000/svg"><path fill-rule="evenodd" clip-rule="evenodd" d="M8.785 8.922s.288-.031.436-.187c.136-.143.131-.413.131-.413s-.018-1.259.578-1.444c.587-.183 1.34 1.217 2.14 1.756.604.407 1.063.318 1.063.318l2.137-.03s1.117-.067.587-.93c-.043-.07-.309-.638-1.588-1.804-1.34-1.22-1.16-1.023.453-3.135.983-1.286 1.376-2.07 1.253-2.407-.117-.32-.84-.235-.84-.235L12.73.425s-.179-.024-.311.054c-.13.076-.213.253-.213.253s-.38.995-.888 1.842c-1.072 1.785-1.5 1.88-1.675 1.769-.408-.26-.306-1.039-.306-1.593 0-1.73.268-2.452-.52-2.638C8.555.05 8.363.009 7.694.002c-.859-.009-1.585.003-1.997.2-.273.132-.485.425-.356.442.16.02.52.095.71.35.247.33.238 1.069.238 1.069s.142 2.037-.33 2.29c-.325.173-.77-.18-1.725-1.8-.489-.83-.858-1.748-.858-1.748s-.072-.17-.2-.263C3.024.43 2.808.396 2.808.396L.522.411S.178.42.052.567C-.06.697.043.966.043.966s1.79 4.11 3.817 6.182c1.859 1.899 3.968 1.774 3.968 1.774h.957z" fill="#fff"/></svg>