<svg width="1820" height="1470" viewBox="0 0 1820 1470" fill="none" xmlns="http://www.w3.org/2000/svg">
<path d="M1119.96 734.852C1248.13 987.576 859.429 908.749 766.005 1046.25C637.773 1234.98 177.256 1109.88 102.615 868.597C41.0675 669.644 174.188 565.615 342.253 489.678C550.548 395.563 854.734 372.423 1081.81 391.236C1271.28 406.934 1405.72 469.762 1512.29 513.98C1618.87 558.198 1733.47 595.704 1768.11 717.837C1802.76 839.969 1646.93 957.465 1431.77 933.238C1162.82 902.953 1298.94 655.628 1204.63 569.073C1110.33 482.518 998.145 494.681 1119.96 734.852Z" fill="url(#paint0_linear)"/>
<defs>
<linearGradient id="paint0_linear" x1="857.439" y1="1484.68" x2="1882.98" y2="619.262" gradientUnits="userSpaceOnUse">
<stop stop-color="#8AE698"/>
<stop offset="1" stop-color="#08B688"/>
</linearGradient>
</defs>
</svg>
