<svg width="1820" height="1470" fill="none" xmlns="http://www.w3.org/2000/svg"><path d="M1119.96 734.852c128.17 252.724-260.531 173.897-353.955 311.398-128.232 188.73-588.749 63.63-663.39-177.653-61.547-198.953 71.573-302.982 239.638-378.919 208.295-94.115 512.481-117.255 739.557-98.442 189.47 15.698 323.91 78.526 430.48 122.744 106.58 44.218 221.18 81.724 255.82 203.857 34.65 122.132-121.18 239.628-336.34 215.401-268.95-30.285-132.83-277.61-227.14-364.165-94.3-86.555-206.485-74.392-84.67 165.779z" fill="url(#paint0_linear)"/><defs><linearGradient id="paint0_linear" x1="857.439" y1="1484.68" x2="1882.98" y2="619.262" gradientUnits="userSpaceOnUse"><stop stop-color="#8AE698"/><stop offset="1" stop-color="#08B688"/></linearGradient></defs></svg>